<?xml version="1.0" encoding="UTF-8" standalone="no"?>
<svg
   xmlns:dc="http://purl.org/dc/elements/1.1/"
   xmlns:cc="http://creativecommons.org/ns#"
   xmlns:rdf="http://www.w3.org/1999/02/22-rdf-syntax-ns#"
   xmlns:svg="http://www.w3.org/2000/svg"
   xmlns="http://www.w3.org/2000/svg"
   xmlns:sodipodi="http://sodipodi.sourceforge.net/DTD/sodipodi-0.dtd"
   xmlns:inkscape="http://www.inkscape.org/namespaces/inkscape"
   inkscape:version="1.0 (4035a4fb49, 2020-05-01)"
   sodipodi:docname="debian.svg"
   id="svg40"
   version="1.1"
   width="400"
   viewBox="0 0 399.99264 400.00831"
   height="400">
  <metadata
     id="metadata46">
    <rdf:RDF>
      <cc:Work
         rdf:about="">
        <dc:format>image/svg+xml</dc:format>
        <dc:type
           rdf:resource="http://purl.org/dc/dcmitype/StillImage" />
        <dc:title />
      </cc:Work>
    </rdf:RDF>
  </metadata>
  <defs
     id="defs44" />
  <sodipodi:namedview
     inkscape:document-rotation="0"
     inkscape:current-layer="svg40"
     inkscape:window-maximized="1"
     inkscape:window-y="27"
     inkscape:window-x="67"
     inkscape:cy="110.66729"
     inkscape:cx="120.08101"
     inkscape:zoom="0.57891208"
     showgrid="false"
     id="namedview42"
     inkscape:window-height="845"
     inkscape:window-width="1533"
     inkscape:pageshadow="2"
     inkscape:pageopacity="0"
     guidetolerance="10"
     gridtolerance="10"
     objecttolerance="10"
     borderopacity="1"
     bordercolor="#666666"
     pagecolor="#ffffff" />
  <path
     style="fill:#d70751;stroke-width:4.28583097"
     inkscape:connector-curvature="0"
     id="path2"
     d="m 229.28467,211.34666 c -6.18647,0.0887 1.16359,3.40674 9.24243,4.74193 2.24022,-1.87193 4.25268,-3.75274 6.0581,-5.58918 -5.02288,1.31745 -10.141,1.3485 -15.30053,0.84725" />
  <path
     style="fill:#d70751;stroke-width:4.28583097"
     inkscape:connector-curvature="0"
     id="path4"
     d="m 262.48206,202.47937 c 3.6978,-5.45168 6.38109,-11.41348 7.32935,-17.57932 -0.83232,4.3915 -3.04769,8.18416 -5.15125,12.19418 -11.56546,7.80268 -1.09319,-4.63104 -0.008,-9.3641 -12.43091,16.78086 -1.71432,10.06053 -2.16982,14.74924" />
  <path
     style="fill:#d70751;stroke-width:4.28583097"
     inkscape:connector-curvature="0"
     id="path6"
     d="m 274.75147,168.30548 c 0.75364,-11.9369 -2.19052,-8.15755 -3.18019,-3.61079 1.15116,0.64764 2.06629,8.41927 3.18019,3.61079" />
  <path
     style="fill:#d70751;stroke-width:4.28583097"
     inkscape:connector-curvature="0"
     id="path8"
     d="m 205.81419,5.1589123 c 3.30442,0.62989 7.13887,1.11783 6.58814,1.96508 3.6274,-0.85612 4.44315,-1.62796 -6.58814,-1.96508" />
  <path
     style="fill:#d70751;stroke-width:4.28583097"
     inkscape:connector-curvature="0"
     id="path10"
     d="m 212.40647,7.1239923 -2.32303,0.519 2.16567,-0.21292 0.15736,-0.30608" />
  <path
     style="fill:#ff2a2a;stroke-width:4.28583097;fill-opacity:1"
     inkscape:connector-curvature="0"
     id="path12"
     d="m 315.38587,172.83006 c 0.37268,10.71705 -2.91932,15.92475 -5.89661,25.1336 l -5.35415,2.85226 c -4.3769,9.11126 0.4348,5.78436 -2.69985,13.02813 -6.84072,6.50741 -20.72921,20.35617 -25.17651,21.62482 -3.25059,-0.0754 2.1988,-4.1076 2.91103,-5.68233 -9.14719,6.72476 -7.34177,10.09602 -21.33378,14.19032 l -0.40581,-0.98033 c -34.49348,17.38858 -82.41168,-17.06476 -81.78226,-64.06716 -0.3644,2.9809 -1.04765,2.23568 -1.80957,3.43336 -1.78057,-24.17988 10.42672,-48.46623 31.01515,-58.39813 20.13707,-10.67268 43.7442,-6.29892 58.15858,8.1132 -7.91735,-11.11628 -23.68994,-22.90236 -42.36943,-21.81114 -18.3068,0.31938 -35.43759,12.77972 -41.152,26.31354 -9.37494,6.3211 -10.46813,24.3795 -14.55104,27.68865 -5.50322,43.29402 10.33977,61.99117 37.14365,83.99749 4.20713,3.043 1.18429,3.50876 1.74744,5.82428 -8.90288,-4.46247 -17.05211,-11.20498 -23.76033,-19.46012 3.56115,5.57588 7.39974,10.9965 12.36465,15.25493 -8.40184,-3.03857 -19.61946,-21.79339 -22.88661,-22.55636 14.47235,27.75962 58.70931,48.68359 81.88579,38.29923 -10.72487,0.42584 -24.3442,0.2351 -36.38587,-4.53345 -5.07257,-2.79016 -11.94228,-8.56121 -10.71244,-9.63913 31.61972,12.64665 64.27465,9.57259 91.62927,-13.9153 6.96495,-5.81098 14.56759,-15.68964 16.7664,-15.82272 -3.30856,5.33191 0.5673,2.56393 -1.9752,7.27038 6.92354,-11.98126 -3.0187,-4.87945 7.16371,-20.68886 l 3.75992,5.54483 c -1.4079,-9.95408 11.53233,-22.0285 10.21553,-37.75806 2.96901,-4.80848 3.30856,5.18108 0.1615,16.24412 4.36862,-12.27403 1.1553,-14.24798 2.27334,-24.37949 1.20499,3.40674 2.80751,7.02197 3.62326,10.61945 -2.84892,-11.86593 2.91104,-19.97469 4.34378,-26.87246 -1.41618,-0.66538 -4.39347,5.2432 -5.08086,-8.76526 0.10353,-6.086 1.58596,-3.18938 2.15326,-4.68871 -1.10975,-0.68755 -4.03735,-5.35408 -5.81379,-14.30122 1.27953,-2.10703 3.44521,5.45168 5.20094,5.75775 -1.13046,-7.11068 -3.07253,-12.53574 -3.15534,-17.99629 -5.13469,-11.48888 -1.81785,1.53481 -5.97529,-4.93268 -5.46595,-18.249138 4.53012,-4.23625 5.20922,-12.522438 8.27347,12.841818 12.98993,32.758848 15.16388,41.005108 -1.65634,-10.0561 -4.32721,-19.80169 -7.59436,-29.22789 2.52179,1.14001 -4.05391,-20.684428 3.27543,-6.232388 -7.82211,-30.80706 -33.44998,-59.59581 -57.03226,-73.09857 2.87791,2.82564 6.51774,6.37433 5.2175,6.93325 -11.73523,-7.47443 -9.67308,-8.0644 -11.35427,-11.22273 -9.54472,-4.16528 -10.18241,0.34156 -16.49725,0.009 -18.0128,-10.23797 -21.48285,-9.15118 -38.05877,-15.5565697 l 0.75364,3.7793597 c -11.92986,-4.2584297 -13.90092,1.60578 -26.79146,0.009 -0.78262,-0.6520697 4.13259,-2.3776297 8.18237,-3.0030797 -11.53647,1.6324 -10.99816,-2.43973 -22.28619,0.44802 2.77853,-2.08929 5.72684,-3.47772 8.6917,-5.25206 -9.40392,0.61215 -22.4601,5.86421 -18.43103,1.08235 C 162.73254,11.258482 135.48145,21.554112 120.1892,36.915502 l -0.48034,-3.44223 c -7.00636,9.00924 -30.55551,26.90794 -32.431326,38.58757 l -1.875816,0.46577 c -3.639829,6.61387 -6.004268,14.10604 -8.894598,20.90621 -4.766146,8.707598 -6.989796,3.35352 -6.310692,4.71976 -9.37908,20.369478 -14.045846,37.483038 -18.066635,51.526978 2.865486,4.59111 0.07039,27.64429 1.151163,46.09304 -4.704033,91.1301 59.703124,179.60337 130.106264,200.02608 10.31906,3.96122 25.661,3.81927 38.71303,4.20963 -15.39577,-4.71976 -17.38339,-2.49739 -32.38991,-8.09988 -10.82011,-5.46499 -13.18869,-11.69737 -20.85759,-18.8258 l 3.03526,5.74444 c -15.03137,-5.70009 -8.74138,-7.05302 -20.97353,-11.20055 l 3.24231,-4.52902 c -4.87381,-0.39923 -12.9071,-8.79188 -15.10176,-13.45397 l -5.33345,0.22623 c -6.40179,-8.45475 -9.81801,-14.56293 -9.56542,-19.296 l -1.7226,3.29141 c -1.95036,-3.58861 -23.565718,-31.7519 -12.35223,-25.1957 -2.08286,-2.03162 -4.85311,-3.31359 -7.85524,-9.16449 l 2.28162,-2.79016 c -5.387278,-7.43894 -9.929813,-16.9716 -9.581981,-20.14768 2.877905,4.16084 4.873807,4.94155 6.853141,5.65572 -13.627612,-36.21438 -14.393673,-1.9917 -24.708591,-36.86201 l 2.1781,-0.18631 c -1.668772,-2.71031 -2.691568,-5.63354 -4.033212,-8.51242 l 0.952401,-10.13594 c -9.80559,-12.13652 -2.741258,-51.65562 -1.320938,-73.32481 0.973105,-8.80962 8.186508,-18.19147 13.664885,-32.90522 L 85.17397,119.684 c 6.385227,-11.9236 36.44797,-47.902878 50.37787,-46.057558 6.74549,-9.07578 -1.34164,-0.0355 -2.66258,-2.31552 14.82019,-16.426 19.47867,-11.60422 29.47888,-14.56294 10.7787,-6.8534 -9.25485,2.67926 -4.14501,-2.61272 18.64636,-5.09681 13.20939,-11.59534 37.52874,-14.18145 2.56734,1.56142 -5.95044,2.41311 -8.08713,4.4403 15.52828,-8.14425 49.14804,-6.28562 70.99529,4.5157 25.32973,12.69101 53.80652,50.18735 54.93284,85.465758 l 1.27953,0.36818 c -0.64598,14.0262 2.00418,30.24815 -2.59633,45.14377 l 3.1098,-7.05746" />
  <path
     style="fill:#d70751;stroke-width:4.28583097"
     inkscape:connector-curvature="0"
     id="path14"
     d="m 161.74287,220.44017 -0.87372,4.64435 c 4.07047,5.92188 7.30036,12.33613 12.48887,16.94943 -3.73507,-7.80268 -6.50531,-11.02755 -11.61515,-21.59378" />
  <path
     style="fill:#d70751;stroke-width:4.28583097"
     inkscape:connector-curvature="0"
     id="path16"
     d="m 171.35384,220.04095 c -2.15325,-2.55506 -3.42036,-5.62468 -4.8531,-8.67655 1.36648,5.37183 4.16571,9.98956 6.76204,14.69158 l -1.90894,-6.01503" />
  <path
     style="fill:#d70751;stroke-width:4.28583097"
     inkscape:connector-curvature="0"
     id="path18"
     d="m 341.47752,180.4287 -0.90686,2.44859 c -1.66463,12.6777 -5.27133,25.22231 -10.78697,36.85758 6.09537,-12.27403 10.02505,-25.70138 11.69383,-39.30617" />
  <path
     style="fill:#d70751;stroke-width:4.28583097"
     inkscape:connector-curvature="0"
     id="path20"
     d="M 207.04403,1.9783923 C 211.22218,0.34156227 217.32168,1.0779123 221.76898,2.2655549e-6 215.98004,0.51899227 210.22008,0.82950227 204.53466,1.6057823 l 2.50937,0.37261" />
  <path
     style="fill:#d70751;stroke-width:4.28583097"
     inkscape:connector-curvature="0"
     id="path22"
     d="m 60.16309,85.647632 c 0.964823,9.55484 -6.708217,13.26766 1.697758,6.95986 4.513553,-10.8856 -1.75573,-3.00308 -1.697758,-6.95986" />
  <path
     style="fill:#d70751;stroke-width:4.28583097"
     inkscape:connector-curvature="0"
     id="path24"
     d="m 50.274682,129.89092 c 1.94207,-6.37434 2.289903,-10.19805 3.03112,-13.89313 -5.354151,7.33692 -2.467961,8.90278 -3.03112,13.89313" />
</svg>
